<mxfile host="Electron" agent="Mozilla/5.0 (Windows NT 10.0; Win64; x64) AppleWebKit/537.36 (KHTML, like Gecko) draw.io/28.0.6 Chrome/138.0.7204.100 Electron/37.2.3 Safari/537.36" version="28.0.6">
  <diagram name="第 1 页" id="BtNhq_2UX-i7anlbKm80">
    <mxGraphModel dx="812" dy="698" grid="1" gridSize="10" guides="1" tooltips="1" connect="1" arrows="1" fold="1" page="1" pageScale="1" pageWidth="827" pageHeight="1169" math="0" shadow="0">
      <root>
        <mxCell id="0" />
        <mxCell id="1" parent="0" />
        <mxCell id="yGqx7VnE_S3cJEANsDvQ-7" value="Vector&lt;div&gt;Database&lt;/div&gt;" style="rounded=1;whiteSpace=wrap;html=1;fillColor=#60a917;fontColor=#ffffff;strokeColor=#2D7600;" vertex="1" parent="1">
          <mxGeometry x="690" y="197.38" width="60" height="160" as="geometry" />
        </mxCell>
        <mxCell id="yGqx7VnE_S3cJEANsDvQ-5" value="" style="rounded=0;whiteSpace=wrap;html=1;opacity=30;strokeColor=#3333FF;strokeWidth=6;" vertex="1" parent="1">
          <mxGeometry x="30" y="194.7826086956522" width="80" height="165.2173913043478" as="geometry" />
        </mxCell>
        <mxCell id="yGqx7VnE_S3cJEANsDvQ-2" value="基本脈診知識" style="rounded=1;whiteSpace=wrap;html=1;fillColor=#0050ef;fontColor=#ffffff;strokeColor=#001DBC;" vertex="1" parent="1">
          <mxGeometry x="43.33333333333334" y="211.30434782608694" width="53.33333333333333" height="33.04347826086956" as="geometry" />
        </mxCell>
        <mxCell id="yGqx7VnE_S3cJEANsDvQ-3" value="病例案例" style="rounded=1;whiteSpace=wrap;html=1;fillColor=#0050ef;fontColor=#ffffff;strokeColor=#001DBC;" vertex="1" parent="1">
          <mxGeometry x="43.33333333333334" y="309.9995652173913" width="53.33333333333333" height="33.04347826086956" as="geometry" />
        </mxCell>
        <mxCell id="yGqx7VnE_S3cJEANsDvQ-4" value="正確案例&lt;div&gt;回答儲存&lt;/div&gt;" style="rounded=1;whiteSpace=wrap;html=1;fillColor=#0050ef;fontColor=#ffffff;strokeColor=#001DBC;" vertex="1" parent="1">
          <mxGeometry x="43.33333333333334" y="260.86478260869563" width="53.33333333333333" height="33.04347826086956" as="geometry" />
        </mxCell>
        <mxCell id="yGqx7VnE_S3cJEANsDvQ-6" value="Data" style="text;strokeColor=none;fillColor=none;align=left;verticalAlign=middle;spacingLeft=4;spacingRight=4;overflow=hidden;points=[[0,0.5],[1,0.5]];portConstraint=eastwest;rotatable=0;whiteSpace=wrap;html=1;" vertex="1" parent="1">
          <mxGeometry x="50" y="170" width="40" height="24.78" as="geometry" />
        </mxCell>
        <mxCell id="yGqx7VnE_S3cJEANsDvQ-22" value="" style="rounded=0;whiteSpace=wrap;html=1;opacity=30;strokeColor=#3333FF;strokeWidth=6;" vertex="1" parent="1">
          <mxGeometry x="150" y="194.78" width="370" height="165.22" as="geometry" />
        </mxCell>
        <mxCell id="yGqx7VnE_S3cJEANsDvQ-12" value="去個資、病例摘要" style="rounded=1;whiteSpace=wrap;html=1;fillColor=#6a00ff;fontColor=#ffffff;strokeColor=#3700CC;" vertex="1" parent="1">
          <mxGeometry x="160" y="301.52" width="100" height="50" as="geometry" />
        </mxCell>
        <mxCell id="yGqx7VnE_S3cJEANsDvQ-23" value="模型計算主次病權重與分類主次病" style="rounded=1;whiteSpace=wrap;html=1;fillColor=#6a00ff;fontColor=#ffffff;strokeColor=#3700CC;" vertex="1" parent="1">
          <mxGeometry x="280" y="301.52" width="100" height="50" as="geometry" />
        </mxCell>
        <mxCell id="yGqx7VnE_S3cJEANsDvQ-24" value="資料清理與分類" style="text;strokeColor=none;fillColor=none;align=left;verticalAlign=middle;spacingLeft=4;spacingRight=4;overflow=hidden;points=[[0,0.5],[1,0.5]];portConstraint=eastwest;rotatable=0;whiteSpace=wrap;html=1;" vertex="1" parent="1">
          <mxGeometry x="214" y="170" width="96" height="24.78" as="geometry" />
        </mxCell>
        <mxCell id="yGqx7VnE_S3cJEANsDvQ-29" value="資料結構化" style="rounded=1;whiteSpace=wrap;html=1;fillColor=#6a00ff;fontColor=#ffffff;strokeColor=#3700CC;" vertex="1" parent="1">
          <mxGeometry x="414" y="260.86" width="100" height="50" as="geometry" />
        </mxCell>
        <mxCell id="yGqx7VnE_S3cJEANsDvQ-30" value="資料清洗、標註" style="rounded=1;whiteSpace=wrap;html=1;fillColor=#6a00ff;fontColor=#ffffff;strokeColor=#3700CC;" vertex="1" parent="1">
          <mxGeometry x="280" y="220" width="100" height="50" as="geometry" />
        </mxCell>
        <mxCell id="yGqx7VnE_S3cJEANsDvQ-31" value="" style="endArrow=classic;html=1;rounded=0;exitX=1;exitY=0.5;exitDx=0;exitDy=0;" edge="1" parent="1" source="yGqx7VnE_S3cJEANsDvQ-2">
          <mxGeometry width="50" height="50" relative="1" as="geometry">
            <mxPoint x="230" y="293.90999999999997" as="sourcePoint" />
            <mxPoint x="270" y="240" as="targetPoint" />
          </mxGeometry>
        </mxCell>
        <mxCell id="yGqx7VnE_S3cJEANsDvQ-32" value="" style="endArrow=classic;html=1;rounded=0;exitX=1;exitY=0.5;exitDx=0;exitDy=0;" edge="1" parent="1">
          <mxGeometry width="50" height="50" relative="1" as="geometry">
            <mxPoint x="97" y="278" as="sourcePoint" />
            <mxPoint x="270" y="250" as="targetPoint" />
          </mxGeometry>
        </mxCell>
        <mxCell id="yGqx7VnE_S3cJEANsDvQ-33" value="" style="endArrow=classic;html=1;rounded=0;exitX=0.996;exitY=0.546;exitDx=0;exitDy=0;exitPerimeter=0;entryX=0;entryY=0.5;entryDx=0;entryDy=0;" edge="1" parent="1" source="yGqx7VnE_S3cJEANsDvQ-3" target="yGqx7VnE_S3cJEANsDvQ-12">
          <mxGeometry width="50" height="50" relative="1" as="geometry">
            <mxPoint x="110" y="360" as="sourcePoint" />
            <mxPoint x="160" y="310" as="targetPoint" />
          </mxGeometry>
        </mxCell>
        <mxCell id="yGqx7VnE_S3cJEANsDvQ-34" value="" style="endArrow=classic;html=1;rounded=0;entryX=0;entryY=0.5;entryDx=0;entryDy=0;exitX=1;exitY=0.5;exitDx=0;exitDy=0;" edge="1" parent="1" source="yGqx7VnE_S3cJEANsDvQ-12" target="yGqx7VnE_S3cJEANsDvQ-23">
          <mxGeometry width="50" height="50" relative="1" as="geometry">
            <mxPoint x="260" y="330" as="sourcePoint" />
            <mxPoint x="294" y="326.02" as="targetPoint" />
          </mxGeometry>
        </mxCell>
        <mxCell id="yGqx7VnE_S3cJEANsDvQ-35" value="" style="endArrow=classic;html=1;rounded=0;entryX=0;entryY=0.75;entryDx=0;entryDy=0;exitX=1;exitY=0.5;exitDx=0;exitDy=0;" edge="1" parent="1" target="yGqx7VnE_S3cJEANsDvQ-29">
          <mxGeometry width="50" height="50" relative="1" as="geometry">
            <mxPoint x="380" y="330" as="sourcePoint" />
            <mxPoint x="400" y="330" as="targetPoint" />
          </mxGeometry>
        </mxCell>
        <mxCell id="yGqx7VnE_S3cJEANsDvQ-37" value="Embedding" style="rounded=1;whiteSpace=wrap;html=1;fillColor=#60a917;fontColor=#ffffff;strokeColor=#2D7600;" vertex="1" parent="1">
          <mxGeometry x="570" y="251.07999999999998" width="70" height="52.61" as="geometry" />
        </mxCell>
        <mxCell id="yGqx7VnE_S3cJEANsDvQ-38" value="" style="endArrow=classic;html=1;rounded=0;exitX=1;exitY=0.5;exitDx=0;exitDy=0;entryX=0;entryY=0.5;entryDx=0;entryDy=0;" edge="1" parent="1" source="yGqx7VnE_S3cJEANsDvQ-22" target="yGqx7VnE_S3cJEANsDvQ-37">
          <mxGeometry width="50" height="50" relative="1" as="geometry">
            <mxPoint x="520" y="310" as="sourcePoint" />
            <mxPoint x="570" y="260" as="targetPoint" />
          </mxGeometry>
        </mxCell>
        <mxCell id="yGqx7VnE_S3cJEANsDvQ-39" value="" style="endArrow=classic;html=1;rounded=0;exitX=1;exitY=0.5;exitDx=0;exitDy=0;entryX=0;entryY=0.5;entryDx=0;entryDy=0;" edge="1" parent="1" target="yGqx7VnE_S3cJEANsDvQ-7">
          <mxGeometry width="50" height="50" relative="1" as="geometry">
            <mxPoint x="640" y="276.21" as="sourcePoint" />
            <mxPoint x="690" y="274.21" as="targetPoint" />
          </mxGeometry>
        </mxCell>
        <mxCell id="yGqx7VnE_S3cJEANsDvQ-41" value="" style="endArrow=classic;html=1;rounded=0;entryX=0;entryY=0.5;entryDx=0;entryDy=0;exitX=1;exitY=0.5;exitDx=0;exitDy=0;" edge="1" parent="1" target="yGqx7VnE_S3cJEANsDvQ-29">
          <mxGeometry width="50" height="50" relative="1" as="geometry">
            <mxPoint x="380" y="251.07999999999998" as="sourcePoint" />
            <mxPoint x="414" y="219.07999999999998" as="targetPoint" />
          </mxGeometry>
        </mxCell>
      </root>
    </mxGraphModel>
  </diagram>
</mxfile>
